<svg width="82" height="65" viewBox="0 0 82 65" fill="none" xmlns="http://www.w3.org/2000/svg">
<g clip-path="url(#clip0_14_131)">
<path fill-rule="evenodd" clip-rule="evenodd" d="M16.9437 0.00793457C12.289 0.00793457 8.84482 4.08197 8.99905 8.50016C9.14706 12.7448 8.95475 18.2423 7.57082 22.7255C6.18195 27.2213 3.83472 30.0702 0 30.4359V34.5644C3.83472 34.9309 6.18195 37.7784 7.57066 42.2748C8.95475 46.758 9.1469 52.2555 8.99889 56.5002C8.84466 60.9177 12.2889 64.9924 16.9443 64.9924H64.6389C69.2935 64.9924 72.7371 60.9184 72.5828 56.5002C72.4348 52.2555 72.6271 46.758 74.0111 42.2748C75.3999 37.7784 77.7414 34.9298 81.5763 34.5644V30.4359C77.7416 30.0694 75.4001 27.2219 74.0111 22.7255C72.627 18.2429 72.4348 12.7448 72.5828 8.50016C72.7371 4.08261 69.2935 0.00793457 64.6389 0.00793457H16.943H16.9437ZM55.306 40.0101C55.306 46.0938 50.7682 49.7834 43.2375 49.7834H30.4182C30.0515 49.7834 29.6999 49.6377 29.4406 49.3784C29.1813 49.1191 29.0356 48.7674 29.0356 48.4007V16.5998C29.0356 16.2331 29.1813 15.8814 29.4406 15.6221C29.6999 15.3628 30.0515 15.2171 30.4182 15.2171H43.1645C49.4438 15.2171 53.5649 18.6185 53.5649 23.8406C53.5649 27.506 50.7926 30.7874 47.2607 31.3622V31.5534C52.0686 32.0808 55.306 35.4108 55.306 40.0101ZM41.8397 19.6001H34.5304V29.9246H40.6867C45.4458 29.9246 48.07 28.0082 48.07 24.5828C48.0695 21.3726 45.8134 19.6001 41.8397 19.6001ZM34.5304 34.0211V45.3989H42.1087C47.0638 45.3989 49.6884 43.4107 49.6884 39.6741C49.6884 35.9375 46.9902 34.0205 41.79 34.0205H34.5304V34.0211Z" fill="#7952B3"/>
</g>
<defs>
<clipPath id="clip0_14_131">
<rect width="81.5763" height="65" fill="white"/>
</clipPath>
</defs>
</svg>
