<svg width="49" height="69" viewBox="0 0 49 69" fill="none" xmlns="http://www.w3.org/2000/svg">
<g clip-path="url(#clip0_14_8)">
<path d="M12.0111 68.0748C18.6386 68.0748 24.0174 62.9919 24.0174 56.729V45.3832H12.0111C5.38363 45.3832 0.00482178 50.4661 0.00482178 56.729C0.00482178 62.9919 5.38363 68.0748 12.0111 68.0748Z" fill="#0ACF83"/>
<path d="M0.00482178 34.0375C0.00482178 27.7746 5.38363 22.6917 12.0111 22.6917H24.0174V45.3833H12.0111C5.38363 45.3833 0.00482178 40.3003 0.00482178 34.0375Z" fill="#A259FF"/>
<path d="M0.00512695 11.3458C0.00512695 5.08292 5.38394 0 12.0114 0H24.0177V22.6916H12.0114C5.38394 22.6916 0.00512695 17.6087 0.00512695 11.3458Z" fill="#F24E1E"/>
<path d="M24.0173 0H36.0236C42.6511 0 48.0299 5.08292 48.0299 11.3458C48.0299 17.6087 42.6511 22.6916 36.0236 22.6916H24.0173V0Z" fill="#FF7262"/>
<path d="M48.0299 34.0375C48.0299 40.3003 42.6511 45.3833 36.0236 45.3833C29.3961 45.3833 24.0173 40.3003 24.0173 34.0375C24.0173 27.7746 29.3961 22.6917 36.0236 22.6917C42.6511 22.6917 48.0299 27.7746 48.0299 34.0375Z" fill="#1ABCFE"/>
</g>
<defs>
<clipPath id="clip0_14_8">
<rect width="48.0347" height="68.0748" fill="white"/>
</clipPath>
</defs>
</svg>
