<svg width="95" height="40" viewBox="0 0 95 40" fill="none" xmlns="http://www.w3.org/2000/svg">
<g clip-path="url(#clip0_14_83)">
<path d="M56.2617 13.6859C54.2033 13.6859 52.6705 14.6965 52.6705 17.1289C52.6705 18.9615 53.6807 20.2339 56.1506 20.2339C58.2443 20.2339 59.6664 19.0001 59.6664 17.0528C59.6664 14.8462 58.3939 13.6859 56.2617 13.6859ZM52.1464 30.8608C51.6591 31.4584 51.1737 32.0939 51.1737 32.843C51.1737 34.3387 53.0809 34.7888 55.7008 34.7888C57.8706 34.7888 60.8267 34.6366 60.8267 32.619C60.8267 31.4198 59.4046 31.3458 57.6077 31.2333L52.1464 30.8608ZM63.2208 13.7988C63.8931 14.6594 64.6051 15.8572 64.6051 17.5779C64.6051 21.7307 61.35 24.1623 56.6368 24.1623C55.4382 24.1623 54.3533 24.013 53.6807 23.8262L52.4454 25.8085L56.1116 26.0328C62.585 26.4454 66.3997 26.633 66.3997 31.6069C66.3997 35.9105 62.6221 38.341 56.1116 38.341C49.34 38.341 46.7583 36.6199 46.7583 33.6646C46.7583 31.981 47.5067 31.0847 48.8163 29.8479C47.5814 29.3261 47.1702 28.3912 47.1702 27.3803C47.1702 26.5565 47.5814 25.8088 48.2559 25.0972C48.9289 24.3874 49.6769 23.6758 50.575 22.8527C48.742 21.9547 47.357 20.0092 47.357 17.24C47.357 12.9383 50.2009 9.98366 55.9241 9.98366C57.5334 9.98366 58.5065 10.1315 59.367 10.3577H66.6634V13.5366L63.2208 13.7988ZM73.2456 7.00001C71.1126 7.00001 69.878 5.76433 69.878 3.63094C69.878 1.5005 71.1122 0.339478 73.2456 0.339478C75.4154 0.339478 76.6504 1.5005 76.6504 3.63094C76.6504 5.76433 75.4158 7.00001 73.2456 7.00001ZM68.4184 29.4839V26.5296L70.3271 26.2685C70.8511 26.1931 70.9254 26.0813 70.9254 25.519V14.5193C70.9254 14.1088 70.8136 13.8455 70.4381 13.7345L68.4184 13.0228L68.8296 9.99322H76.575V25.519C76.575 26.1185 76.611 26.1931 77.1741 26.2689L79.082 26.53V29.4839H68.4184ZM93.8774 28.0334C92.2681 28.8186 89.9111 29.5295 87.7777 29.5295C83.3256 29.5295 81.6427 27.7355 81.6427 23.5055V13.7043C81.6427 13.48 81.6427 13.3303 81.3423 13.3303H78.7238V9.99948C82.0171 9.62436 83.3256 7.97826 83.7371 3.90015H87.2919V9.2143C87.2919 9.47541 87.2919 9.58832 87.5917 9.58832H92.8665V13.3296H87.2919V22.2709C87.2919 24.4783 87.8164 25.3381 89.8357 25.3381C90.8846 25.3381 91.9684 25.077 92.8661 24.7401L93.8774 28.033" fill="#2F2707"/>
<path d="M38.4418 18.2153L21.335 1.10956C21.1007 0.87521 20.8225 0.689309 20.5164 0.562476C20.2103 0.435642 19.8821 0.370361 19.5508 0.370361C19.2194 0.370361 18.8913 0.435642 18.5851 0.562476C18.279 0.689309 18.0008 0.87521 17.7666 1.10956L14.2144 4.66214L18.7205 9.16796C19.2502 8.98782 19.8198 8.95963 20.3646 9.08657C20.9095 9.21351 21.408 9.49051 21.8035 9.8862C22.2011 10.2844 22.4788 10.7864 22.6047 11.3349C22.7306 11.8833 22.6997 12.4562 22.5155 12.9879L26.8576 17.3308C27.9083 16.9689 29.1208 17.2032 29.9597 18.0435C30.2386 18.3222 30.4598 18.6532 30.6108 19.0174C30.7617 19.3817 30.8394 19.7721 30.8394 20.1664C30.8394 20.5607 30.7617 20.9511 30.6108 21.3154C30.4598 21.6797 30.2386 22.0106 29.9597 22.2893C29.469 22.7805 28.8233 23.0864 28.1325 23.155C27.4416 23.2236 26.7483 23.0507 26.1706 22.6657C25.5929 22.2807 25.1665 21.7073 24.9639 21.0433C24.7614 20.3792 24.7952 19.6655 25.0597 19.0236L21.0099 14.9738L21.0095 25.6315C21.3031 25.7767 21.5712 25.9685 21.8035 26.1994C22.0824 26.4782 22.3036 26.8092 22.4545 27.1735C22.6054 27.5378 22.6831 27.9283 22.6831 28.3226C22.6831 28.717 22.6054 29.1075 22.4545 29.4718C22.3036 29.8361 22.0824 30.1671 21.8035 30.4459C20.6303 31.6191 18.729 31.6191 17.5577 30.4459C17.2077 30.0962 16.9496 29.6655 16.8063 29.192C16.663 28.7185 16.6389 28.217 16.7361 27.7319C16.8333 27.2469 17.0489 26.7934 17.3637 26.4117C17.6785 26.0301 18.0827 25.7322 18.5403 25.5444V14.7874C18.1722 14.637 17.838 14.4141 17.5577 14.132C16.6692 13.2446 16.4555 11.9409 16.9108 10.8497L12.469 6.40717L0.739569 18.1358C0.505184 18.3702 0.31926 18.6484 0.192411 18.9547C0.0655629 19.2609 0.000274658 19.5891 0.000274658 19.9206C0.000274658 20.252 0.0655629 20.5802 0.192411 20.8865C0.31926 21.1927 0.505184 21.471 0.739569 21.7053L17.8464 38.8114C18.3196 39.2845 18.9614 39.5503 19.6306 39.5503C20.2997 39.5503 20.9415 39.2845 21.4148 38.8114L38.4418 21.7851C38.915 21.3116 39.1808 20.6696 39.1808 20.0002C39.1808 19.3308 38.915 18.6888 38.4418 18.2153Z" fill="#DE4C36"/>
</g>
<defs>
<clipPath id="clip0_14_83">
<rect width="94.147" height="39.73" fill="white"/>
</clipPath>
</defs>
</svg>
