<svg width="60" height="68" viewBox="0 0 60 68" fill="none" xmlns="http://www.w3.org/2000/svg">
<path d="M8.375 16.0176H18.2529V55.2217C18.2529 57.9561 17.7516 60.2689 16.749 62.1602C15.7464 64.0514 14.2995 65.487 12.4082 66.4668C10.5169 67.4466 8.22689 67.9365 5.53809 67.9365C4.69499 67.9365 3.87467 67.891 3.07715 67.7998C2.25684 67.7087 1.41374 67.5605 0.547852 67.3555L0.582031 59.8018C1.12891 59.8929 1.66439 59.9613 2.18848 60.0068C2.68978 60.0752 3.20247 60.1094 3.72656 60.1094C4.75195 60.1094 5.60645 59.9385 6.29004 59.5967C6.97363 59.2549 7.48633 58.7194 7.82812 57.9902C8.19271 57.2839 8.375 56.361 8.375 55.2217V16.0176ZM7.58887 6.37891C7.58887 4.94336 8.09017 3.75846 9.09277 2.82422C10.1182 1.88997 11.4626 1.42285 13.126 1.42285C14.8122 1.42285 16.1566 1.88997 17.1592 2.82422C18.1618 3.75846 18.6631 4.94336 18.6631 6.37891C18.6631 7.81445 18.1618 8.99935 17.1592 9.93359C16.1566 10.8678 14.8122 11.335 13.126 11.335C11.4626 11.335 10.1182 10.8678 9.09277 9.93359C8.09017 8.99935 7.58887 7.81445 7.58887 6.37891ZM26.0801 0.5H35.9238V44.5234L34.9326 53H26.0801V0.5ZM59.3369 34.1328V34.8506C59.3369 37.6077 59.0407 40.137 58.4482 42.4385C57.8786 44.7399 56.9899 46.7337 55.7822 48.4199C54.5745 50.0833 53.0706 51.3822 51.2705 52.3164C49.4932 53.2279 47.3968 53.6836 44.9814 53.6836C42.7256 53.6836 40.766 53.2279 39.1025 52.3164C37.4619 51.4049 36.0833 50.1175 34.9668 48.4541C33.8503 46.7907 32.9502 44.8424 32.2666 42.6094C31.583 40.3763 31.0703 37.9382 30.7285 35.2949V33.7227C31.0703 31.0794 31.583 28.6413 32.2666 26.4082C32.9502 24.1751 33.8503 22.2269 34.9668 20.5635C36.0833 18.9001 37.4619 17.6126 39.1025 16.7012C40.7432 15.7897 42.68 15.334 44.9131 15.334C47.3512 15.334 49.4704 15.8011 51.2705 16.7354C53.0934 17.6468 54.5973 18.9456 55.7822 20.6318C56.9899 22.2952 57.8786 24.2777 58.4482 26.5791C59.0407 28.8577 59.3369 31.3757 59.3369 34.1328ZM49.4932 34.8506V34.1328C49.4932 32.6289 49.3792 31.2161 49.1514 29.8945C48.9463 28.5501 48.5817 27.3766 48.0576 26.374C47.5335 25.3486 46.8158 24.5397 45.9043 23.9473C45.0156 23.3548 43.8649 23.0586 42.4521 23.0586C41.1077 23.0586 39.9684 23.2865 39.0342 23.7422C38.0999 24.1979 37.3252 24.8359 36.71 25.6562C36.1175 26.4766 35.6732 27.4564 35.377 28.5957C35.0807 29.7122 34.8984 30.9427 34.8301 32.2871V36.7646C34.8984 38.5648 35.1947 40.1598 35.7188 41.5498C36.2656 42.917 37.0859 43.9993 38.1797 44.7969C39.2962 45.5716 40.7432 45.959 42.5205 45.959C43.9105 45.959 45.0612 45.6855 45.9727 45.1387C46.8841 44.5918 47.5905 43.8171 48.0918 42.8145C48.6159 41.8118 48.9805 40.6383 49.1855 39.2939C49.3906 37.9268 49.4932 36.4456 49.4932 34.8506Z" fill="url(#paint0_linear_69_58)"/>
<defs>
<linearGradient id="paint0_linear_69_58" x1="4" y1="36.7444" x2="62" y2="36.7444" gradientUnits="userSpaceOnUse">
<stop stop-color="#6721FF"/>
<stop offset="0.440104" stop-color="#684CF5"/>
<stop offset="1" stop-color="#00C1FF"/>
</linearGradient>
</defs>
</svg>
