<svg width="87" height="20" viewBox="0 0 87 20" fill="none" xmlns="http://www.w3.org/2000/svg">
<g clip-path="url(#clip0_14_100)">
<path fill-rule="evenodd" clip-rule="evenodd" d="M82.6793 1.77222L86.2458 1.79186C86.2458 1.79186 79.6149 10.7772 79.0734 11.5095C78.8976 11.7466 78.6305 12.0023 78.495 12.3194C78.1525 13.1163 77.8008 14.8644 77.8008 14.8644L74.5375 14.8807C74.5375 14.8807 75.0453 13.0585 75.0244 12.0879C75.006 11.2401 74.5731 10.3932 74.3304 9.54287C74.0849 8.68204 73.7518 6.99767 73.7518 6.99767H77.1068L77.5696 8.84871L82.6793 1.77222Z" fill="#1A1918"/>
<path fill-rule="evenodd" clip-rule="evenodd" d="M75.9257 3.66723C76.5839 4.06402 76.9878 6.2529 76.9878 6.2529C76.9878 6.2529 73.5438 6.30369 71.6696 6.30369H70.05L68.0832 14.8644H65.0755C65.0755 14.8644 66.9473 5.56107 67.3892 3.87437C67.5324 3.32823 68.3703 3.42197 69.7851 3.42197H72.0444C73.5033 3.42197 75.2085 3.23565 75.9257 3.66723ZM61.923 7.83654C61.923 7.83654 62.0168 7.28707 61.605 6.65068C61.2532 6.10821 60.9283 5.982 60.0027 5.95302C57.3894 5.87094 57.4402 7.80757 57.4402 7.80757L61.923 7.83654ZM64.7573 5.61868C65.1402 7.00018 64.4103 10.2462 64.4103 10.2462C64.4103 10.2462 60.5983 10.1826 58.5103 10.2462C57.8611 10.266 57.084 10.1756 56.8907 10.4777C56.6188 10.9009 56.9901 11.5524 57.3048 11.8277C57.667 12.1445 58.3724 12.1807 58.626 12.2128C60.3207 12.4281 63.8676 12.2684 63.8676 12.2684L63.2532 14.9891C63.2532 14.9891 58.2409 15.2406 55.7338 14.6421C55.2388 14.5242 54.7748 14.286 54.4612 13.9481C54.3756 13.8557 54.3014 13.7297 54.2205 13.6208C54.1559 13.5339 53.9674 13.2483 53.8828 13.0225C53.3102 11.4967 53.9499 8.57349 54.577 7.00701C54.6497 6.82551 54.7411 6.59524 54.8374 6.39959C54.9576 6.15566 55.0593 5.88026 55.1554 5.7344C55.22 5.63383 55.3001 5.56906 55.3672 5.47415C55.4446 5.36193 55.5347 5.2532 55.6181 5.15613C55.8496 4.88772 56.1121 4.6979 56.428 4.46213C57.4725 3.67989 59.3628 3.07264 61.6338 3.30508C62.4888 3.393 63.7801 3.69837 64.4103 4.57769C64.5791 4.81246 64.6625 5.27868 64.7573 5.61885V5.61868ZM50.9618 3.41131L53.8783 3.39416C53.8783 3.39416 52.2529 11.1045 51.4245 14.8644H48.0694C45.7247 14.8644 43.6365 15.1548 42.748 13.4761C41.8862 11.8462 42.7087 9.16575 43.095 7.34468C43.3681 6.05592 43.9432 3.4218 43.9432 3.4218L46.965 3.39416C46.965 3.39416 46.1111 7.4952 45.7558 9.54289C45.6286 10.2763 45.3662 10.967 45.6403 11.5093C45.9005 12.0255 46.265 12.0625 47.3754 12.0879C47.7272 12.0963 48.8795 12.0879 48.8795 12.0879L50.9618 3.41131ZM37.3108 8.96428C37.6162 7.87933 38.0616 6.7028 38.005 5.72508C37.9437 4.67942 37.0669 3.72734 36.5011 3.5272C34.7971 2.92562 33.2018 3.76664 32.5677 4.45264C31.7475 5.34112 31.4698 6.37895 31.1794 7.80773C30.9633 8.86837 30.7861 9.98813 31.1794 10.8153C31.8757 12.2777 34.0473 11.9584 36.3854 11.9724C36.7324 11.0423 37.0192 9.99762 37.3108 8.96428ZM41.3599 4.68408C41.6929 7.10641 40.4148 9.78016 39.5343 12.1052C40.4321 12.1863 41.2189 12.0928 41.2755 12.1597C41.3344 12.2464 40.6737 14.935 40.4434 14.942C39.731 14.9605 37.3699 14.9801 36.3854 14.9801C33.1726 14.9801 30.1672 15.1894 28.6345 13.592C28.0121 12.9429 27.5817 11.8298 27.4775 11.0468C27.304 9.73953 27.5214 8.30026 27.8246 7.11357C28.0989 6.0421 28.4504 5.03108 28.9815 4.10548C30.3315 1.74909 32.6799 -5.6088e-05 36.6166 0.40372C37.3802 0.482311 38.4768 0.816655 39.1618 1.21344C39.2091 1.24124 39.3748 1.37312 39.4128 1.39626C40.3384 1.98519 41.1817 3.39067 41.3599 4.68408ZM27.1455 3.4253C26.9511 4.31028 26.7568 5.31348 26.552 6.18796H23.3128C23.5638 5.21857 23.7559 4.25483 24.007 3.41148C25.0435 3.41148 26.0072 3.4253 27.1456 3.4253H27.1455ZM23.1971 6.99785H26.3208C25.9123 9.25833 25.1036 12.9046 24.4697 15.4429C24.0729 17.0313 23.808 18.1904 22.7344 19.0291C22.6383 19.1043 22.5829 19.0685 22.5029 19.1448C22.3051 19.3334 21.39 19.5522 20.8835 19.6075C20.0598 19.6967 19.1285 19.6192 18.1162 19.5983C18.3811 18.6301 18.6808 17.4674 18.9169 16.5996C21.3845 16.8983 21.447 14.5659 21.9247 12.3194C22.2011 11.0213 23.0388 7.51834 23.1971 6.99785Z" fill="#1A1918"/>
<path fill-rule="evenodd" clip-rule="evenodd" d="M15.9088 12.8978L15.8419 13.0713C14.7013 15.2925 12.6801 16.6552 9.79723 16.7153C8.44953 16.7431 7.16544 16.3973 6.32658 16.0213C4.51633 15.2079 2.99364 13.6995 2.16211 12.0879C0.969259 9.77765 0.754134 6.56392 3.2344 4.16357C3.2727 4.16357 2.93353 4.68407 2.97182 4.68407L2.90356 4.90619C1.11628 10.5018 6.6228 15.2971 11.9756 14.7487C13.262 14.6168 14.9025 13.9123 15.9088 12.8978Z" fill="#21609B"/>
<path fill-rule="evenodd" clip-rule="evenodd" d="M12.6696 10.5841C14.0163 10.5932 15.423 9.96383 16.256 9.08019C15.5272 10.9301 13.4171 12.1191 10.5875 11.741C8.21808 11.4239 5.9611 9.03973 5.72866 6.6507C5.55865 4.91205 6.16457 3.87438 7.1631 2.6156C6.81611 3.27396 6.6864 3.78164 6.6541 4.10549C6.2748 7.86653 9.65853 10.5643 12.6696 10.5841Z" fill="#21609B"/>
<path fill-rule="evenodd" clip-rule="evenodd" d="M16.1206 5.91259C15.9113 6.39279 14.706 7.29958 14.1737 7.41297C12.0659 7.86204 10.716 6.86251 10.0089 5.72511C9.9038 5.55527 9.70948 5.09138 9.67468 4.97333C9.40045 4.0409 9.5265 2.6306 10.3445 1.90063C10.0981 2.5948 10.0621 3.40102 10.1919 3.92518C10.2704 4.24204 10.5099 4.79534 10.7495 5.14333C11.1854 5.77722 11.462 5.93124 12.0219 6.26791C12.2742 6.41944 12.5447 6.54098 12.6616 6.57429C13.1926 6.73063 14.3137 7.1424 16.1208 5.91259" fill="#21609B"/>
</g>
<defs>
<clipPath id="clip0_14_100">
<rect width="87" height="19.6968" fill="white"/>
</clipPath>
</defs>
</svg>
