<svg width="93" height="93" viewBox="0 0 93 93" fill="none" xmlns="http://www.w3.org/2000/svg">
<path fill-rule="evenodd" clip-rule="evenodd" d="M0 0H93V93H0V0Z" fill="white"/>
<path fill-rule="evenodd" clip-rule="evenodd" d="M4.10297 61.8664H6.92303V50.7583L11.2716 60.4455C11.7878 61.6073 12.4773 62.0164 13.8548 62.0164C15.2327 62.0164 15.9217 61.6073 16.4379 60.4455L20.7865 50.7583V61.8664H23.5848V50.7796C23.5848 49.7037 23.154 49.186 22.2715 48.9061C20.1404 48.2389 18.6978 48.8202 18.0523 50.2628L13.7901 59.7994L9.65722 50.2628C9.0329 48.8202 7.56907 48.2389 5.43798 48.9061C4.53382 49.186 4.10345 49.7032 4.10345 50.7796V61.8664H4.10297ZM25.9311 52.8243H28.7295V58.9382C28.7082 59.2822 28.8371 60.0576 30.3873 60.0793C31.1621 60.1 36.436 60.0793 36.479 60.0793V52.8026H39.2991C39.3203 52.8026 39.2991 62.7261 39.2991 62.7696C39.3203 65.2234 36.2638 65.7397 34.8646 65.7831H25.9958V63.8889C25.9958 63.8889 34.8434 63.9106 34.8646 63.8889C36.6729 63.7167 36.4578 62.813 36.4578 62.5114V61.779H30.4948C27.7177 61.7366 25.9523 60.5304 25.9311 59.1312C25.9311 59.0024 25.9958 52.8894 25.9311 52.8243ZM86.3997 45.785C84.6783 45.7421 83.3645 45.8926 82.2234 46.3876C81.9011 46.5169 81.4056 46.5169 81.3415 46.926C81.5137 47.0973 81.5562 47.3776 81.6855 47.615C81.9653 48.0459 82.4179 48.6263 82.8265 48.9278C83.2574 49.2728 83.7095 49.6168 84.1828 49.9184C85.044 50.4346 85.9911 50.7144 86.7872 51.2321C87.2827 51.5327 87.756 51.9211 88.2298 52.2651C88.4445 52.4374 88.6172 52.696 88.897 52.8031V52.7606C88.7465 52.5667 88.7031 52.2868 88.5738 52.0707L87.9282 51.4251C87.3044 50.6073 86.5073 49.8749 85.6673 49.2728C85.0001 48.799 83.4933 48.1318 83.2135 47.3569C83.1918 47.3352 83.1701 47.3352 83.1701 47.3135C83.6438 47.2483 84.204 47.0771 84.6344 46.9685C85.3668 46.7755 86.0335 46.818 86.7867 46.6245C87.1317 46.5164 87.4757 46.4305 87.8206 46.323V46.129C87.4332 45.7416 87.1751 45.2036 86.7447 44.8591C85.6471 43.912 84.4409 42.9862 83.214 42.2113C82.525 41.7592 81.6855 41.4794 80.954 41.1137C80.7167 41.0061 80.2858 40.9414 80.1145 40.7262C79.7261 40.2524 79.5331 39.6281 79.2316 39.0685C78.6001 37.8406 78.0114 36.5912 77.4667 35.3225C77.101 34.483 76.8419 33.6435 76.3908 32.8682C74.1516 29.2086 71.7619 26.9916 68.0382 24.8171C67.2421 24.365 66.295 24.1715 65.2828 23.9347C64.7448 23.8912 64.2068 23.87 63.6684 23.8266C63.3451 23.6973 63.0011 23.2886 62.6779 23.0947C61.4509 22.3198 58.2864 20.6191 57.3817 22.8578C56.8004 24.2569 58.243 25.6349 58.7592 26.3456C59.1259 26.8406 59.577 27.4008 59.8361 27.9599C60.0074 28.3257 60.0291 28.6919 60.1801 29.0793C60.5458 30.0481 60.8474 31.1028 61.2994 31.9852C61.5359 32.4373 61.794 32.9111 62.0955 33.3202C62.2678 33.5571 62.591 33.6647 62.6335 34.0522C62.3319 34.4825 62.3112 35.1286 62.139 35.6665C61.3853 38.0992 61.6652 41.0915 62.7845 42.8993C63.1295 43.4373 63.9256 44.6213 65.0454 44.1697C66.0142 43.7605 65.7985 42.5548 66.0784 41.4572C66.1435 41.2203 66.1001 41.048 66.2289 40.8758V40.9187C66.5087 41.5214 66.8103 42.1027 67.1118 42.6836C67.7574 43.7388 68.9201 44.8582 69.9107 45.5896C70.4052 45.977 70.8143 46.6448 71.4816 46.8595V46.816H71.4174C71.2881 46.623 71.0942 46.5367 70.9436 46.3857C70.5562 45.9982 70.1258 45.5245 69.8026 45.0941C68.9206 43.8884 68.1241 42.5539 67.3921 41.1759C67.0472 40.5086 66.7456 39.7767 66.4668 39.1095C66.3582 38.8513 66.3582 38.4639 66.1218 38.3129C65.7985 38.8079 65.3474 39.2171 65.0878 39.7984C64.7004 40.7243 64.6362 41.8649 64.5074 43.0276C64.4206 43.0706 64.4423 43.0489 64.3989 43.0923C63.7109 42.9201 63.4735 42.2094 63.2154 41.6068C62.5915 40.0783 62.4617 37.6244 63.0214 35.859C63.1719 35.4069 63.8402 33.9861 63.5603 33.5557C63.4301 33.1466 63.0214 32.8884 62.785 32.5657C62.4834 32.1782 62.2036 31.6615 61.9889 31.2094C61.4727 30.0037 61.2353 28.6692 60.6751 27.464C60.3953 26.8826 59.9654 26.3012 59.5992 25.8062C59.1901 25.2248 58.738 24.8161 58.4157 24.1272C58.3081 23.8903 58.1576 23.5028 58.3081 23.2442C58.3723 23.072 58.4374 23.0073 58.6087 22.9427C58.8885 22.7275 59.6856 23.029 59.9861 23.1362C60.7615 23.4806 61.4287 23.7822 62.096 24.2343C62.4193 24.4495 62.7425 24.8581 63.13 24.9662H63.5608C64.2498 25.1167 65.0242 25.0091 65.6697 25.2031C66.8108 25.5471 67.8437 26.0855 68.7701 26.6886C71.6114 28.4752 73.9152 31.0155 75.5079 34.0507C75.766 34.5457 75.8736 34.9978 76.0892 35.5145C76.5418 36.5697 77.1222 37.6456 77.5743 38.6574C78.0051 39.6908 78.4572 40.7243 79.0811 41.5633C79.426 42.0154 80.7171 42.2523 81.2985 42.4887C81.7077 42.661 82.3744 42.8544 82.7628 43.0918C83.516 43.5222 84.2262 44.0606 84.9369 44.5556C85.2804 44.795 86.3563 45.3329 86.3997 45.785Z" fill="#00678C"/>
<path fill-rule="evenodd" clip-rule="evenodd" d="M64.4423 27.0785C64.145 27.0786 63.8488 27.1149 63.5603 27.1866V27.2295H63.6245C63.7967 27.574 64.0983 27.8109 64.3134 28.112C64.464 28.4564 64.6367 28.8009 64.7872 29.1454L64.8514 29.0808C65.153 28.8873 65.2823 28.5428 65.2823 28.0048C65.1747 27.8755 65.153 27.725 65.0458 27.574C64.8948 27.3583 64.6367 27.2507 64.4423 27.0785Z" fill="#00678C"/>
<path fill-rule="evenodd" clip-rule="evenodd" d="M41.4736 61.8664H49.5459C50.493 61.8664 51.4184 61.6724 52.1503 61.3274C53.3555 60.7687 53.9586 60.0146 53.9586 59.0246V56.9582C53.9586 56.1621 53.2696 55.3872 51.9573 54.8917C51.2466 54.6119 50.3854 54.4826 49.5459 54.4826H46.1449C45.0038 54.4826 44.4659 54.1376 44.3366 53.3849C44.3149 53.2991 44.3149 53.2127 44.3149 53.1268V51.8565C44.3149 51.7706 44.3149 51.7059 44.3366 51.62C44.4659 51.0387 44.7669 50.8664 45.7575 50.7805C45.8433 50.7805 45.9509 50.7588 46.0373 50.7588H54.0667V48.8863H46.1666C45.0256 48.8863 44.4442 48.9722 43.9062 49.1228C42.2272 49.6607 41.4953 50.479 41.4953 51.9216V53.5577C41.4953 54.828 42.9374 55.9039 45.3271 56.1621C45.6069 56.1621 45.8651 56.1838 46.1449 56.1838H49.0513C49.1589 56.1838 49.266 56.1838 49.3519 56.2055C50.2566 56.2914 50.6223 56.4419 50.9021 56.7642C51.0526 56.9364 51.1178 57.0875 51.1178 57.2814V58.9175C51.1178 59.1114 50.9885 59.37 50.7086 59.5847C50.4713 59.8004 50.0621 59.9297 49.5242 59.9722C49.4166 59.9722 49.3312 59.9939 49.2226 59.9939H41.4736V61.8664ZM71.4816 58.5933C71.4816 60.5309 72.9025 61.6068 75.8089 61.8225C76.067 61.8442 76.3469 61.8659 76.605 61.8659H83.9242V59.9924H76.5616C74.9038 59.9924 74.28 59.5833 74.28 58.5933V48.8854H71.4811V58.5933H71.4816ZM55.7457 58.7009V52.0282C55.7457 50.3275 56.9292 49.2945 59.2972 48.9713C59.5346 48.9278 59.8144 48.9278 60.0508 48.9278H65.3889C65.647 48.9278 65.8844 48.9278 66.1642 48.9713C68.5105 49.2945 69.7157 50.3275 69.7157 52.0282V58.7009C69.7157 60.0793 69.1995 60.8107 68.0367 61.2845L70.8139 63.7818H67.5422L65.303 61.7795L63.0421 61.9088H60.0503C59.5341 61.9088 58.9956 61.8447 58.3925 61.6724C56.6069 61.1981 55.7457 60.251 55.7457 58.7009ZM58.7809 58.5296C58.7809 58.6372 58.8026 58.7226 58.8243 58.8311C58.9966 59.6055 59.728 60.0363 60.8257 60.0363H63.3881L61.0418 57.9265H64.3135L66.3582 59.7565C66.7249 59.5626 66.983 59.261 67.0689 58.8736C67.0906 58.766 67.0906 58.6806 67.0906 58.5937V52.1792C67.0906 52.1141 67.0906 52.0287 67.0689 51.9419C66.8966 51.2104 66.1652 50.8018 65.0883 50.8018H60.8261C59.5775 50.8018 58.7814 51.3397 58.7814 52.1792V58.5296H58.7809ZM85.2162 61.8664H85.6254V60.3162H86.185V59.9929H84.6566V60.3162H85.2162V61.8664ZM88.3591 61.8664H88.7248V59.9929H88.1651L87.6706 61.285L87.176 59.9929H86.5947V61.8664H86.9821V60.4455L87.52 61.8664H87.7999L88.3378 60.4455H88.3596V61.8664H88.3591Z" fill="#CE8B2C"/>
<path fill-rule="evenodd" clip-rule="evenodd" d="M4.72729 44.2135V37.1525H6.92256C7.43929 37.1525 7.80549 37.1959 8.06361 37.2818C8.38639 37.4111 8.64451 37.6263 8.8597 37.9708C9.05365 38.2936 9.16124 38.7027 9.16124 39.1765C9.16124 39.8225 8.98948 40.3388 8.66622 40.7267C8.34345 41.1353 7.78329 41.3293 6.98721 41.3293H5.50167V44.214H4.72729V44.2135ZM5.50215 40.511H7.00892C7.48271 40.511 7.82672 40.4034 8.04238 40.1882C8.25805 39.9731 8.36516 39.6498 8.36516 39.2194C8.36516 38.9396 8.30051 38.7027 8.19291 38.5088C8.08532 38.2936 7.95602 38.1647 7.80549 38.1001C7.65495 38.0137 7.37464 37.992 6.98769 37.992H5.50215V40.511ZM9.91535 40.7691C9.91535 39.5852 10.174 38.6593 10.7119 38.0137C11.2499 37.3677 11.8959 37.0449 12.692 37.0449C13.2087 37.0449 13.6825 37.1742 14.0912 37.4753C14.522 37.7551 14.8448 38.1855 15.1029 38.7239C15.3398 39.2836 15.4686 39.9296 15.4686 40.6828C15.4686 41.738 15.2317 42.5992 14.758 43.2447C14.22 43.9766 13.531 44.3424 12.6915 44.3424C11.8308 44.3424 11.1418 43.9549 10.6251 43.223C10.1522 42.5562 9.91535 41.738 9.91535 40.7691ZM10.7119 40.7909C10.7119 41.6516 10.9054 42.3406 11.2933 42.8144C11.659 43.2877 12.1328 43.5463 12.6925 43.5463C13.2521 43.5463 13.7259 43.2877 14.0917 42.8144C14.4791 42.3193 14.673 41.6087 14.673 40.662C14.673 40.0589 14.5654 39.521 14.3715 39.0472C14.221 38.6815 14.0053 38.3799 13.7042 38.1647C13.4094 37.9529 13.055 37.8398 12.692 37.842C12.1106 37.842 11.6373 38.0789 11.2716 38.5522C10.8842 39.0472 10.7119 39.7791 10.7119 40.7909ZM17.4285 44.2135L15.9 37.1525H16.6748L17.5578 41.7809C17.6654 42.2547 17.7295 42.7497 17.8159 43.2235L18.074 41.9319L19.1933 37.153H20.0975L20.9153 40.7267C21.1173 41.55 21.2753 42.3834 21.3886 43.2235C21.4533 42.7714 21.5391 42.2547 21.6684 41.6955L22.5726 37.153H23.3692L21.7765 44.214H21.0229L19.796 38.832L19.602 38.0142C19.5591 38.3158 19.4944 38.5956 19.4515 38.832L18.2033 44.2135H17.4285ZM24.0799 44.2135V37.1525H28.2562V37.9925H24.8335V40.1453H28.041V40.9848H24.8335V43.3957H28.3855V44.2135H24.0799ZM29.4402 44.2135V37.1525H32.0021C32.5405 37.1525 32.9492 37.2172 33.1861 37.3465C33.4447 37.4758 33.6594 37.7127 33.8316 38.0137C33.9822 38.3153 34.0685 38.681 34.0685 39.0689C34.0685 39.6069 33.9392 40.0372 33.6594 40.3817C33.3796 40.7045 32.9704 40.9202 32.4325 41.006C32.6477 41.1353 32.8199 41.2647 32.9275 41.3935C33.1644 41.6733 33.3583 41.9749 33.5301 42.2976L34.5423 44.2135H33.5735L32.7987 42.7497C32.4971 42.1688 32.2819 41.7809 32.1314 41.5874C31.9809 41.394 31.8299 41.2647 31.6793 41.1783C31.55 41.1136 31.3566 41.0707 31.0979 41.0707H30.2155V44.2135H29.4402ZM30.215 40.2741H31.8511C32.2168 40.2741 32.4966 40.2312 32.6689 40.1448C32.8624 40.0585 33.0134 39.9079 33.121 39.7357C33.2286 39.5422 33.2715 39.3265 33.2715 39.0897C33.2715 38.7239 33.1856 38.4441 32.9699 38.2289C32.7548 38.0354 32.4532 37.9274 32.0446 37.9274H30.215V40.2741ZM35.2955 44.2135V37.1525H39.4718V37.9925H36.0703V40.1453H39.2561V40.9848H36.0703V43.3957H39.6223V44.2135H35.2955ZM40.6553 44.2135V37.1525H42.6571C43.1521 37.1525 43.5183 37.1959 43.7764 37.2818C44.1209 37.3894 44.4007 37.6046 44.6589 37.9061C44.8958 38.2077 45.0897 38.5734 45.2403 39.0255C45.3696 39.4776 45.4337 40.016 45.4337 40.6403C45.4337 41.4369 45.3261 42.1259 45.0892 42.6851C44.8524 43.2447 44.5513 43.6322 44.1851 43.8691C43.8194 44.1059 43.3239 44.2135 42.743 44.2135H40.6553ZM41.4306 43.3957H42.6576C43.1526 43.3957 43.5188 43.3094 43.7769 43.1376C44.0355 42.9871 44.229 42.7285 44.3795 42.3628C44.5518 41.8895 44.6381 41.3081 44.6381 40.6408C44.6381 39.9301 44.5523 39.3492 44.3583 38.9401C44.1643 38.5309 43.9057 38.2511 43.6047 38.1218C43.4107 38.0359 43.0879 37.9925 42.6359 37.9925H41.4302V43.3957H41.4306ZM48.9428 44.2135V37.1525H51.1178C51.5694 37.1525 51.9139 37.2172 52.1725 37.3677C52.4306 37.497 52.6463 37.7122 52.7973 37.992C52.9685 38.2936 53.0554 38.5951 53.0554 38.9608C53.0554 39.2836 52.9685 39.5639 52.8397 39.8221C52.6892 40.0802 52.4957 40.2954 52.2376 40.4459C52.5583 40.5718 52.835 40.7888 53.0337 41.0702C53.2267 41.3718 53.3135 41.7375 53.3135 42.1683C53.3135 42.5992 53.2267 42.9644 53.0554 43.2877C52.8831 43.6104 52.6463 43.8473 52.3447 43.9984C52.0649 44.1489 51.6557 44.2135 51.1395 44.2135H48.9428ZM49.7186 40.1236H50.9672C51.2895 40.1236 51.5269 40.1024 51.6562 40.0589C51.8709 39.9943 52.0219 39.8655 52.129 39.7149C52.2376 39.5644 52.2796 39.3487 52.2796 39.0694C52.2796 38.8108 52.2371 38.5956 52.1503 38.4234C52.0427 38.2511 51.9139 38.1435 51.7411 38.0789C51.5906 38.0142 51.2886 37.9925 50.8799 37.9925H49.7181V40.1236H49.7186ZM49.7186 43.3957H51.1602C51.4618 43.3957 51.6982 43.3528 51.8492 43.3094C52.0593 43.2278 52.2345 43.0757 52.3447 42.879C52.474 42.7068 52.516 42.4486 52.516 42.1688C52.516 41.889 52.4735 41.6738 52.3659 41.4798C52.2574 41.3076 52.1078 41.1571 51.9134 41.0707C51.7411 40.9848 51.4396 40.9414 51.0522 40.9414H49.7176V43.3957H49.7186ZM55.9821 44.2135V41.2212L53.7656 37.1525H54.691L55.8311 39.2836C56.0495 39.6766 56.2507 40.0789 56.4342 40.4893C56.6064 40.1019 56.7999 39.6927 57.059 39.2407L58.1783 37.1525H59.0603L56.7574 41.2212V44.2135H55.9821Z" fill="#00678C"/>
</svg>
