<svg width="92" height="56" viewBox="0 0 92 56" fill="none" xmlns="http://www.w3.org/2000/svg">
<g clip-path="url(#clip0_14_2)">
<path d="M21.708 14.4905H39.0601V15.8697H23.2986V26.2497H38.1203V27.6288H23.2986V39.0252H39.2409V40.4043H21.708V14.4905ZM40.6148 14.4905H42.4584L50.6282 25.8868L58.9788 14.4903L70.3371 0.0146484L51.6765 27.0846L61.2925 40.4043H59.3765L50.6282 28.2822L41.8437 40.4043H39.9639L49.6521 27.0844L40.6148 14.4905ZM61.9793 15.8697V14.4903H81.7535V15.8696H72.6435V40.4041H71.0529V15.8697H61.9793ZM0 14.4903H1.98824L29.405 55.5171L18.0751 40.4041L1.66283 16.4503L1.59059 40.4045H0L0 14.4903ZM81.5932 38.6087C81.2682 38.6087 81.0245 38.3571 81.0245 38.0315C81.0245 37.7063 81.2682 37.4543 81.5932 37.4543C81.9221 37.4543 82.1619 37.7061 82.1619 38.0315C82.1619 38.3569 81.9221 38.6087 81.5932 38.6087ZM83.1561 37.0903H84.0073C84.0188 37.5512 84.3554 37.8612 84.8506 37.8612C85.4039 37.8612 85.7172 37.528 85.7172 36.9043V32.953H86.5839V36.9081C86.5839 38.0315 85.9339 38.6786 84.8583 38.6786C83.8485 38.6786 83.1561 38.0509 83.1561 37.0901V37.0903ZM87.7173 37.04H88.5762C88.6497 37.5706 89.1681 37.9075 89.9149 37.9075C90.6112 37.9075 91.1219 37.5472 91.1219 37.0515C91.1219 36.6254 90.7968 36.3697 90.0579 36.1955L89.3383 36.0212C88.3284 35.7847 87.8683 35.2967 87.8683 34.4755C87.8683 33.48 88.6806 32.8175 89.8993 32.8175C91.0327 32.8175 91.8607 33.4798 91.9111 34.4212H91.0676C90.9864 33.9061 90.5375 33.5844 89.8876 33.5844C89.203 33.5844 88.7466 33.9138 88.7466 34.4173C88.7466 34.8162 89.0404 35.0449 89.7677 35.2153L90.3828 35.3664C91.528 35.6338 92 36.0986 92 36.9392C92 38.0083 91.1722 38.6786 89.8491 38.6786C88.6111 38.6786 87.7791 38.0392 87.7173 37.0398V37.04Z" fill="black"/>
</g>
<defs>
<clipPath id="clip0_14_2">
<rect width="92" height="55.5312" fill="white"/>
</clipPath>
</defs>
</svg>
