<svg width="97" height="62" viewBox="0 0 97 62" fill="none" xmlns="http://www.w3.org/2000/svg">
<g filter="url(#filter0_d_14_29)">
<g clip-path="url(#clip0_14_29)">
<path d="M47.5343 53.8442C47.2363 53.8442 46.958 53.7648 46.6995 53.6256L44.0561 52.0555C43.6585 51.8368 43.8573 51.7573 43.9767 51.7176C44.5132 51.5387 44.6126 51.4988 45.1691 51.181C45.2288 51.1411 45.3084 51.1611 45.3679 51.2008L47.3953 52.4132C47.4748 52.453 47.5742 52.453 47.6337 52.4132L55.5643 47.8219C55.6437 47.7821 55.6836 47.7025 55.6836 47.6033V38.4405C55.6836 38.3409 55.6437 38.2616 55.5643 38.2217L47.6337 33.6503C47.5542 33.6104 47.4548 33.6104 47.3953 33.6503L39.4647 38.2217C39.3853 38.2614 39.3454 38.3608 39.3454 38.4403V47.6031C39.3454 47.6827 39.3853 47.782 39.4647 47.8219L41.6313 49.074C42.804 49.6702 43.5393 48.9746 43.5393 48.279V39.2353C43.5393 39.1162 43.6387 38.9968 43.7778 38.9968H44.7915C44.9108 38.9968 45.03 39.0962 45.03 39.2353V48.279C45.03 49.8491 44.1753 50.7635 42.6846 50.7635C42.2275 50.7635 41.8698 50.7635 40.856 50.2665L38.7691 49.074C38.2523 48.776 37.9343 48.2193 37.9343 47.623V38.4602C37.9343 37.864 38.2523 37.3073 38.7691 37.0093L46.6995 32.4179C47.1965 32.1397 47.8724 32.1397 48.3692 32.4179L56.2997 37.0093C56.8164 37.3073 57.1346 37.864 57.1346 38.4602V47.623C57.1346 48.2193 56.8164 48.776 56.2997 49.074L48.3692 53.6654C48.1107 53.7847 47.8127 53.8442 47.5345 53.8442H47.5343ZM49.9791 47.5436C46.5009 47.5436 45.7853 45.9535 45.7853 44.602C45.7853 44.4826 45.8847 44.3634 46.0238 44.3634H47.0574C47.1766 44.3634 47.276 44.4429 47.276 44.5622C47.4351 45.6156 47.8922 46.1324 49.999 46.1324C51.6686 46.1324 52.3843 45.7547 52.3843 44.8603C52.3843 44.3435 52.1853 43.966 49.5816 43.7075C47.4151 43.4888 46.0636 43.0119 46.0636 41.2827C46.0636 39.6727 47.4153 38.7186 49.681 38.7186C52.2251 38.7186 53.4774 39.5932 53.6365 41.5011C53.6365 41.5609 53.6165 41.6204 53.5768 41.6801C53.5369 41.7199 53.4774 41.7596 53.4177 41.7596H52.3841C52.2847 41.7596 52.1853 41.6801 52.1656 41.5807C51.927 40.4877 51.3108 40.1298 49.681 40.1298C47.8524 40.1298 47.6337 40.7659 47.6337 41.2428C47.6337 41.8193 47.8922 41.9981 50.3567 42.3161C52.8015 42.6342 53.9544 43.0913 53.9544 44.8006C53.9345 46.5498 52.5035 47.5436 49.9791 47.5436Z" fill="#539E43"/>
<path d="M22.9278 18.0078C22.9278 17.6501 22.729 17.312 22.4111 17.1332L13.9836 12.2835C13.8443 12.2039 13.6854 12.1641 13.5265 12.1442H13.4469C13.288 12.1442 13.1289 12.2039 12.9898 12.2835L4.56235 17.1332C4.24419 17.312 4.04556 17.65 4.04556 18.0078L4.06551 31.0464C4.06551 31.2253 4.16491 31.4041 4.32382 31.4838C4.48289 31.5832 4.68152 31.5832 4.82082 31.4838L9.82958 28.6216C10.1476 28.4427 10.3464 28.1048 10.3464 27.7471V21.6451C10.3464 21.2874 10.545 20.9495 10.8631 20.7706L12.9898 19.5382C13.1489 19.4388 13.3277 19.3989 13.5066 19.3989C13.6854 19.3989 13.8643 19.4388 14.0036 19.5382L16.1302 20.7706C16.4484 20.9495 16.647 21.2872 16.647 21.6451V27.7471C16.647 28.1048 16.8458 28.4427 17.1638 28.6216L22.1725 31.4838C22.3316 31.5832 22.5302 31.5832 22.6893 31.4838C22.8484 31.4041 22.9478 31.2253 22.9478 31.0464L22.9278 18.0078ZM63.4352 0.0597182C63.2763 -0.0199061 63.0775 -0.0199061 62.9382 0.0597182C62.7793 0.159119 62.6799 0.318024 62.6799 0.496877V13.4165C62.6799 13.5356 62.6204 13.6548 62.5011 13.7344C62.3819 13.7939 62.2626 13.7939 62.1434 13.7344L60.0365 12.522C59.8821 12.4341 59.7074 12.3878 59.5296 12.3878C59.3519 12.3878 59.1772 12.4341 59.0227 12.522L50.5953 17.3917C50.2773 17.5705 50.0785 17.9084 50.0785 18.2661V27.9855C50.0785 28.3432 50.2773 28.6813 50.5953 28.8601L59.0227 33.7298C59.1772 33.8177 59.3519 33.8639 59.5296 33.8639C59.7074 33.8639 59.8821 33.8177 60.0365 33.7298L68.464 28.8601C68.7819 28.6813 68.9807 28.3433 68.9807 27.9855V3.75665C68.9807 3.379 68.7819 3.04124 68.464 2.86222L63.4354 0.0597182H63.4352ZM62.6602 24.7855C62.6602 24.8849 62.6204 24.9644 62.5408 25.0041L59.6589 26.6736C59.6186 26.6933 59.5744 26.7035 59.5296 26.7035C59.4848 26.7035 59.4406 26.6933 59.4004 26.6736L56.5184 25.0041C56.4388 24.9644 56.3991 24.865 56.3991 24.7855V21.4463C56.3991 21.3469 56.4388 21.2674 56.5184 21.2277L59.4004 19.558C59.4406 19.5384 59.4848 19.5282 59.5296 19.5282C59.5744 19.5282 59.6186 19.5384 59.6589 19.558L62.5408 21.2277C62.6204 21.2673 62.6602 21.3668 62.6602 21.4463V24.7855ZM91.4803 21.3668C91.7985 21.188 91.9773 20.8501 91.9773 20.4922V18.127C91.9773 17.7693 91.7785 17.4314 91.4803 17.2525L83.1126 12.4028C82.9581 12.3149 82.7835 12.2687 82.6058 12.2687C82.4281 12.2687 82.2534 12.3149 82.099 12.4028L73.6715 17.2723C73.3534 17.4512 73.1547 17.7891 73.1547 18.147V27.8663C73.1547 28.224 73.3534 28.5619 73.6715 28.7408L82.0393 33.511C82.3574 33.6898 82.7349 33.6898 83.0331 33.511L88.1014 30.6889C88.2605 30.6093 88.3599 30.4304 88.3599 30.2516C88.3599 30.0727 88.2605 29.8939 88.1014 29.8142L79.6342 24.9446C79.4753 24.8454 79.3759 24.6863 79.3759 24.5074V21.4664C79.3759 21.2876 79.4753 21.1087 79.6342 21.0291L82.2778 19.5185C82.3552 19.4698 82.4448 19.4439 82.5362 19.4439C82.6276 19.4439 82.7172 19.4698 82.7946 19.5185L85.438 21.0291C85.5971 21.1285 85.6965 21.2874 85.6965 21.4664V23.8515C85.6965 24.0304 85.7959 24.2092 85.9548 24.2887C86.1139 24.3881 86.3125 24.3881 86.4716 24.2887L91.4803 21.3668Z" fill="#333333"/>
<path d="M82.4766 20.9098C82.5061 20.8904 82.5406 20.88 82.5759 20.88C82.6112 20.88 82.6458 20.8904 82.6752 20.9098L84.2853 21.8439C84.3449 21.8835 84.3847 21.9432 84.3847 22.0228V23.8911C84.3847 23.9706 84.3449 24.0302 84.2853 24.07L82.6752 25.0041C82.6458 25.0236 82.6112 25.0339 82.5759 25.0339C82.5406 25.0339 82.5061 25.0236 82.4766 25.0041L80.8666 24.07C80.8069 24.0302 80.7672 23.9706 80.7672 23.8911V22.0228C80.7672 21.9432 80.8069 21.8835 80.8666 21.8439L82.4766 20.9098Z" fill="#539E43"/>
<mask id="mask0_14_29" style="mask-type:alpha" maskUnits="userSpaceOnUse" x="27" y="12" width="19" height="22">
<path d="M37.02 12.4426C36.8655 12.3547 36.6909 12.3085 36.5131 12.3085C36.3354 12.3085 36.1608 12.3547 36.0063 12.4426L27.6386 17.2722C27.3204 17.451 27.1416 17.789 27.1416 18.1467V27.8264C27.1416 28.1841 27.3404 28.5221 27.6386 28.7009L36.0063 33.5308C36.1608 33.6187 36.3354 33.665 36.5131 33.665C36.6909 33.665 36.8655 33.6187 37.02 33.5308L45.3879 28.7009C45.7059 28.5221 45.8849 28.1841 45.8849 27.8264V18.1468C45.8849 17.7891 45.6859 17.4512 45.3879 17.2723L37.02 12.4426Z" fill="white"/>
</mask>
<g mask="url(#mask0_14_29)">
<path d="M37.02 12.4426C36.8655 12.3547 36.6909 12.3085 36.5131 12.3085C36.3354 12.3085 36.1608 12.3547 36.0063 12.4426L27.6386 17.2722C27.3204 17.451 27.1416 17.789 27.1416 18.1467V27.8264C27.1416 28.1841 27.3404 28.5221 27.6386 28.7009L36.0063 33.5308C36.1608 33.6187 36.3354 33.665 36.5131 33.665C36.6909 33.665 36.8655 33.6187 37.02 33.5308L45.3879 28.7009C45.7059 28.5221 45.8849 28.1841 45.8849 27.8264V18.1468C45.8849 17.7891 45.6859 17.4512 45.3879 17.2723L37.02 12.4426Z" fill="url(#paint0_linear_14_29)"/>
<path d="M45.4077 17.2724L37.0002 12.4427C36.9176 12.4009 36.831 12.3676 36.7417 12.3433L27.3204 28.4827C27.3984 28.578 27.4927 28.6588 27.5988 28.7213L36.0063 33.5512C36.2449 33.6903 36.5231 33.73 36.7814 33.6504L45.6264 17.4714C45.5667 17.3919 45.4871 17.3321 45.4077 17.2726V17.2724Z" fill="url(#paint1_linear_14_29)"/>
<path fill-rule="evenodd" clip-rule="evenodd" d="M45.4276 28.7011C45.6661 28.562 45.845 28.3234 45.9246 28.0651L36.7018 12.3233C36.4633 12.2835 36.2048 12.3033 35.9864 12.4424L27.6384 17.2526L36.6421 33.6701C36.7731 33.6487 36.9002 33.6085 37.0198 33.5509L45.4274 28.7013L45.4276 28.7011Z" fill="url(#paint2_linear_14_29)"/>
<path fill-rule="evenodd" clip-rule="evenodd" d="M45.4276 28.7011L37.0399 33.531C36.9215 33.5914 36.7939 33.6316 36.6622 33.6502L36.8213 33.9484L46.1232 28.5621V28.4428L45.8847 28.0452C45.845 28.3234 45.6661 28.5619 45.4276 28.7011Z" fill="url(#paint3_linear_14_29)"/>
<path fill-rule="evenodd" clip-rule="evenodd" d="M45.4276 28.7011L37.0399 33.531C36.9215 33.5914 36.7939 33.6316 36.6622 33.6502L36.8213 33.9484L46.1232 28.5621V28.4428L45.8847 28.0452C45.845 28.3234 45.6661 28.5619 45.4276 28.7011Z" fill="url(#paint4_linear_14_29)"/>
</g>
</g>
</g>
<defs>
<filter id="filter0_d_14_29" x="0" y="0" width="96.0626" height="62" filterUnits="userSpaceOnUse" color-interpolation-filters="sRGB">
<feFlood flood-opacity="0" result="BackgroundImageFix"/>
<feColorMatrix in="SourceAlpha" type="matrix" values="0 0 0 0 0 0 0 0 0 0 0 0 0 0 0 0 0 0 127 0" result="hardAlpha"/>
<feOffset dy="4"/>
<feGaussianBlur stdDeviation="2"/>
<feComposite in2="hardAlpha" operator="out"/>
<feColorMatrix type="matrix" values="0 0 0 0 0 0 0 0 0 0 0 0 0 0 0 0 0 0 0.25 0"/>
<feBlend mode="normal" in2="BackgroundImageFix" result="effect1_dropShadow_14_29"/>
<feBlend mode="normal" in="SourceGraphic" in2="effect1_dropShadow_14_29" result="shape"/>
</filter>
<linearGradient id="paint0_linear_14_29" x1="39.9223" y1="16.0431" x2="30.7504" y2="30.4548" gradientUnits="userSpaceOnUse">
<stop stop-color="#41873F"/>
<stop offset="0.3288" stop-color="#418B3D"/>
<stop offset="0.6352" stop-color="#419637"/>
<stop offset="0.9319" stop-color="#3FA92D"/>
<stop offset="1" stop-color="#3FAE2A"/>
</linearGradient>
<linearGradient id="paint1_linear_14_29" x1="35.2427" y1="24.1206" x2="58.2132" y2="11.6406" gradientUnits="userSpaceOnUse">
<stop offset="0.1376" stop-color="#41873F"/>
<stop offset="0.4032" stop-color="#54A044"/>
<stop offset="0.7136" stop-color="#66B848"/>
<stop offset="0.9081" stop-color="#6CC04A"/>
</linearGradient>
<linearGradient id="paint2_linear_14_29" x1="26.8358" y1="22.987" x2="46.1987" y2="22.987" gradientUnits="userSpaceOnUse">
<stop offset="0.09192" stop-color="#6CC04A"/>
<stop offset="0.2864" stop-color="#66B848"/>
<stop offset="0.5968" stop-color="#54A044"/>
<stop offset="0.8624" stop-color="#41873F"/>
</linearGradient>
<linearGradient id="paint3_linear_14_29" x1="26.8359" y1="31.013" x2="46.1986" y2="31.013" gradientUnits="userSpaceOnUse">
<stop offset="0.09192" stop-color="#6CC04A"/>
<stop offset="0.2864" stop-color="#66B848"/>
<stop offset="0.5968" stop-color="#54A044"/>
<stop offset="0.8624" stop-color="#41873F"/>
</linearGradient>
<linearGradient id="paint4_linear_14_29" x1="49.0195" y1="15.5853" x2="44.1142" y2="41.2891" gradientUnits="userSpaceOnUse">
<stop stop-color="#41873F"/>
<stop offset="0.3288" stop-color="#418B3D"/>
<stop offset="0.6352" stop-color="#419637"/>
<stop offset="0.9319" stop-color="#3FA92D"/>
<stop offset="1" stop-color="#3FAE2A"/>
</linearGradient>
<clipPath id="clip0_14_29">
<rect width="88.0626" height="54" fill="white" transform="translate(4)"/>
</clipPath>
</defs>
</svg>
