<svg width="87" height="46" viewBox="0 0 87 46" fill="none" xmlns="http://www.w3.org/2000/svg">
<g clip-path="url(#clip0_14_95)">
<path d="M43.4073 45.7318C67.3805 45.7318 86.8146 35.4944 86.8146 22.8659C86.8146 10.2374 67.3805 0 43.4073 0C19.4341 0 0 10.2374 0 22.8659C0 35.4944 19.4341 45.7318 43.4073 45.7318Z" fill="#8993BE"/>
<path fill-rule="evenodd" clip-rule="evenodd" d="M12.1896 36.4049L16.9468 12.0346H27.9468C32.7036 12.3355 35.0822 14.7422 35.0822 18.9547C35.0822 26.1755 29.4335 30.3877 24.3789 30.0867H19.028L17.8387 36.4049H12.1896ZM20.2169 25.5739L21.7036 16.5477H25.5686C27.6497 16.5477 29.1361 17.4502 29.1361 19.2554C28.839 24.3704 26.4605 25.273 23.7848 25.5739H20.2173H20.2169ZM33.977 30.0867L38.7339 5.71667H44.3829L43.1936 12.0346H48.5449C53.3021 12.3355 55.0859 14.7422 54.4914 17.7512L52.4102 30.0867H46.4641L48.5453 18.9547C48.8423 17.4502 48.8423 16.5477 46.7615 16.5477H42.3017L39.6261 30.0867H33.977ZM52.0294 36.4049L56.7862 12.0346H67.7866C72.5437 12.3355 74.9223 14.7422 74.9223 18.9547C74.9223 26.1755 69.2732 30.3877 64.219 30.0867H58.8674L57.6781 36.4049H52.0294ZM60.0563 25.5739L61.543 16.5477H65.4083C67.4895 16.5477 68.9758 17.4502 68.9758 19.2554C68.6788 24.3704 66.3002 25.273 63.6245 25.5739H60.0567H60.0563Z" fill="#232531"/>
</g>
<defs>
<clipPath id="clip0_14_95">
<rect width="86.8146" height="46" fill="white"/>
</clipPath>
</defs>
</svg>
