<svg width="71" height="80" viewBox="0 0 71 80" fill="none" xmlns="http://www.w3.org/2000/svg">
<g clip-path="url(#clip0_13_417)">
<path d="M70.4762 40.0071C70.4762 35.3562 64.6295 30.9485 55.6656 28.2152C57.7342 19.1136 56.8148 11.8724 52.7638 9.55411C51.83 9.01031 50.7383 8.75271 49.5459 8.75271V11.944C50.2067 11.944 50.7383 12.0728 51.1836 12.3161C53.1373 13.4323 53.9848 17.6826 53.324 23.1492C53.166 24.4944 52.9074 25.9112 52.5914 27.3565C49.7758 26.6696 46.7016 26.1401 43.4694 25.7967C41.5301 23.1492 39.519 20.745 37.4935 18.6414C42.1765 14.3052 46.5723 11.9297 49.5603 11.9297V8.7384C45.6098 8.7384 40.4383 11.5433 35.2094 16.4089C29.9804 11.5719 24.8089 8.79565 20.8584 8.79565V11.9869C23.832 11.9869 28.2422 14.3482 32.9253 18.6557C30.9141 20.7593 28.903 23.1492 26.9924 25.7967C23.7459 26.1401 20.6717 26.6696 17.8561 27.3709C17.5257 25.9398 17.2815 24.5517 17.1091 23.2208C16.4339 17.7541 17.2671 13.5038 19.2064 12.3733C19.6374 12.1157 20.1976 12.0012 20.8584 12.0012V8.80996C19.6517 8.80996 18.56 9.06755 17.6119 9.61135C13.5752 11.9297 12.6702 19.1565 14.7532 28.2295C5.81795 30.9771 0 35.3705 0 40.0071C0 44.6581 5.84668 49.0658 14.8106 51.7991C12.742 60.9007 13.6614 68.1419 17.7124 70.4602C18.6462 71.004 19.7379 71.2616 20.9446 71.2616C24.8951 71.2616 30.0666 68.4567 35.2956 63.5911C40.5245 68.4281 45.696 71.2043 49.6465 71.2043C50.8532 71.2043 51.945 70.9467 52.8931 70.4029C56.9297 68.0846 57.8347 60.8577 55.7518 51.7848C64.6582 49.0515 70.4762 44.6438 70.4762 40.0071ZM51.7726 30.462C51.241 32.308 50.5802 34.2113 49.8332 36.1147C49.2443 34.9698 48.6266 33.825 47.9514 32.6801C47.2906 31.5353 46.5867 30.419 45.8828 29.3314C47.9227 29.6319 49.8907 30.004 51.7726 30.462ZM45.1933 45.7028C44.0728 47.6347 42.9235 49.4665 41.7312 51.1694C39.5908 51.3555 37.4216 51.4557 35.2381 51.4557C33.0689 51.4557 30.8998 51.3555 28.7737 51.1838C27.5814 49.4808 26.4178 47.6633 25.2973 45.7457C24.2055 43.871 23.2143 41.9677 22.3093 40.0501C23.2 38.1325 24.2055 36.2148 25.2829 34.3401C26.4034 32.4082 27.5527 30.5764 28.745 28.8735C30.8854 28.6874 33.0546 28.5873 35.2381 28.5873C37.4073 28.5873 39.5764 28.6874 41.7025 28.8592C42.8948 30.5621 44.0584 32.3796 45.1789 34.2972C46.2707 36.1719 47.2619 38.0752 48.1669 39.9928C47.2619 41.9105 46.2706 43.8281 45.1933 45.7028ZM49.8332 43.8424C50.609 45.76 51.2698 47.6777 51.8157 49.538C49.9338 49.996 47.9514 50.3824 45.8972 50.6829C46.6011 49.581 47.305 48.4504 47.9658 47.2913C48.6266 46.1464 49.2443 44.9872 49.8332 43.8424ZM35.2668 59.1119C33.9309 57.738 32.5949 56.2068 31.2733 54.5324C32.5662 54.5897 33.8878 54.6326 35.2237 54.6326C36.5741 54.6326 37.91 54.604 39.2173 54.5324C37.9244 56.2068 36.5884 57.738 35.2668 59.1119ZM24.579 50.6829C22.5392 50.3824 20.5711 50.0103 18.6893 49.5523C19.2208 47.7063 19.8816 45.803 20.6286 43.8996C21.2176 45.0445 21.8353 46.1893 22.5104 47.3342C23.1856 48.479 23.8751 49.5953 24.579 50.6829ZM35.195 20.9024C36.531 22.2763 37.8669 23.8075 39.1886 25.4818C37.8957 25.4246 36.5741 25.3817 35.2381 25.3817C33.8878 25.3817 32.5518 25.4103 31.2445 25.4818C32.5374 23.8075 33.8734 22.2763 35.195 20.9024ZM24.5647 29.3314C23.8608 30.4333 23.1569 31.5639 22.4961 32.723C21.8353 33.8679 21.2176 35.0127 20.6286 36.1576C19.8529 34.24 19.192 32.3223 18.6462 30.462C20.528 30.0183 22.5104 29.6319 24.5647 29.3314ZM11.5641 47.2483C6.47875 45.0874 3.1891 42.2539 3.1891 40.0071C3.1891 37.7604 6.47875 34.9126 11.5641 32.766C12.7995 32.2365 14.1498 31.7642 15.5433 31.3206C16.3621 34.1255 17.4395 37.0448 18.7755 40.0358C17.4538 43.0124 16.3908 45.9174 15.5864 48.708C14.1642 48.2644 12.8139 47.7778 11.5641 47.2483ZM19.2926 67.6982C17.3389 66.582 16.4914 62.3317 17.1522 56.8651C17.3102 55.5199 17.5688 54.1031 17.8848 52.6578C20.7004 53.3447 23.7746 53.8742 27.0068 54.2176C28.9461 56.8651 30.9572 59.2693 32.9827 61.3729C28.2997 65.7091 23.9039 68.0846 20.9159 68.0846C20.2694 68.0703 19.7236 67.9415 19.2926 67.6982ZM53.3671 56.7935C54.0423 62.2602 53.2091 66.5105 51.2698 67.641C50.8388 67.8986 50.2786 68.0131 49.6178 68.0131C46.6441 68.0131 42.234 65.6518 37.5509 61.3443C39.5621 59.2406 41.5732 56.8508 43.4838 54.2033C46.7303 53.8598 49.8045 53.3304 52.6201 52.6291C52.9505 54.0745 53.2091 55.4626 53.3671 56.7935ZM58.8978 47.2483C57.6623 47.7778 56.312 48.2501 54.9186 48.6937C54.0997 45.8888 53.0223 42.9694 51.6864 39.9785C53.008 37.0019 54.071 34.0969 54.8755 31.3063C56.2976 31.7499 57.648 32.2365 58.9121 32.766C63.9974 34.9269 67.2871 37.7604 67.2871 40.0071C67.2727 42.2539 63.9831 45.1017 58.8978 47.2483Z" fill="#61DAFB"/>
<path d="M35.2238 46.5471C38.8495 46.5471 41.7887 43.619 41.7887 40.0071C41.7887 36.3952 38.8495 33.4672 35.2238 33.4672C31.598 33.4672 28.6588 36.3952 28.6588 40.0071C28.6588 43.619 31.598 46.5471 35.2238 46.5471Z" fill="#61DAFB"/>
</g>
<defs>
<clipPath id="clip0_13_417">
<rect width="70.4762" height="80" fill="white"/>
</clipPath>
</defs>
</svg>
