<svg width="76" height="45" viewBox="0 0 76 45" fill="none" xmlns="http://www.w3.org/2000/svg">
<g clip-path="url(#clip0_14_5)">
<path d="M37.6442 0C27.6094 0 21.338 5.0001 18.8291 14.9994C22.5925 9.99927 26.9827 8.12494 31.9996 9.37449C34.8624 10.0875 36.9083 12.1579 39.1735 14.4487C42.8625 18.1805 47.1322 22.4995 56.4594 22.4995C66.4932 22.4995 72.7655 17.4994 75.2735 7.49922C71.5111 12.4993 67.1209 14.3746 62.1031 13.125C59.2412 12.4121 57.1953 10.3417 54.9301 8.05083C51.241 4.31904 46.9704 0 37.6442 0ZM18.8291 22.4995C8.79523 22.4995 2.52289 27.4996 0.0148926 37.4998C3.77735 32.4997 8.16752 30.6245 13.1854 31.875C16.0472 32.5889 18.0932 34.6583 20.3584 36.9482C24.0474 40.68 28.3181 45 37.6442 45C47.679 45 53.9504 39.9999 56.4594 29.9997C52.6959 34.9998 48.3058 36.8751 43.2889 35.6246C40.4261 34.9125 38.3801 32.8412 36.115 30.5513C32.4259 26.8195 28.1562 22.4995 18.8291 22.4995Z" fill="#06B6D4"/>
</g>
<defs>
<clipPath id="clip0_14_5">
<rect width="75.2885" height="45" fill="white"/>
</clipPath>
</defs>
</svg>
