<svg width="77" height="67" viewBox="0 0 77 67" fill="none" xmlns="http://www.w3.org/2000/svg">
<path d="M71.2582 62.6608C73.0733 62.809 74.5551 62.42 74.5551 62.42V51.0104H77V64.1425C75.0984 64.5686 69.5294 66.3837 67.0536 62.7349C66.0452 60.9877 66.0535 59.0119 66.0535 59.0119V51.0104H68.6095C68.6095 51.0104 68.6049 57.8676 68.6003 59.0491C68.6003 61.1729 69.5747 62.6608 71.2582 62.6608ZM63.8987 62.3095C63.8987 62.3095 63.3925 62.8064 61.3797 62.9762C59.3052 62.9762 58.8236 61.2135 58.8359 60.4323V53.4435H63.8987V51.4185H58.8359V47.1705L56.3664 47.6646V60.1114C56.3664 60.1114 56.4528 62.791 57.5271 63.8653C58.6013 64.9396 60.3919 65.7916 64.442 64.3839C64.0885 62.8817 63.8987 62.3095 63.8987 62.3095ZM48.1601 52.6286C46.3449 52.4804 44.8631 52.8694 44.8631 52.8694V64.279H42.4182V51.1469C44.3198 50.7208 49.8889 48.9057 52.3646 52.5545C53.3731 54.3017 53.3648 56.2775 53.3648 56.2775V64.279H50.8087C50.8087 64.279 50.8133 57.4218 50.8179 56.2403C50.8178 54.1165 49.8434 52.6286 48.1601 52.6286ZM33.3654 62.6608C35.1805 62.809 36.6623 62.42 36.6623 62.42V51.0104H39.1072V64.1425C37.2057 64.5686 31.6366 66.3837 29.1609 62.7349C28.1524 60.9877 28.1607 59.0119 28.1607 59.0119V51.0104H30.7167C30.7167 51.0104 30.7121 57.8676 30.7075 59.0491C30.7077 61.1729 31.6821 62.6608 33.3654 62.6608ZM16.2505 62.5956V54.2421C16.2505 54.2421 16.7877 53.1864 19.177 53.1864C21.5664 53.1864 21.8998 53.8902 22.1776 54.2051C22.4554 54.52 23.0667 55.1312 23.0667 57.4279C23.1222 60.0581 22.5666 62.9475 18.9918 62.9475C16.8317 62.9475 16.4334 62.8573 16.2505 62.5956ZM13.7779 64.3066C13.7779 64.3066 15.4079 65.1215 18.7418 65.1215C22.0758 65.1215 25.6691 63.2693 25.6691 57.8238C25.6691 52.3784 21.5052 50.8595 19.6605 50.8595C17.8159 50.8595 16.2507 51.9338 16.2507 51.9338V44.7843L13.7779 45.1547V64.3066ZM5.21301 62.6608C7.02817 62.809 8.50994 62.42 8.50994 62.42V51.0104H10.9549V64.1425C9.0533 64.5686 3.48423 66.3837 1.0085 62.7349C5.18654e-06 60.9877 0.00830296 59.0119 0.00830296 59.0119V51.0104H2.56435C2.56435 51.0104 2.55976 57.8676 2.55516 59.0491C2.55531 61.1729 3.52972 62.6608 5.21301 62.6608Z" fill="black"/>
<path d="M21.5298 20.4879C21.5298 31.7402 30.6515 40.8619 41.9041 40.8619C53.1563 40.8622 62.2784 31.7403 62.2784 20.4879C62.2784 9.23555 53.1563 0.113647 41.9042 0.113647C30.6515 0.113499 21.5298 9.23555 21.5298 20.4879Z" fill="#DE4815"/>
<path d="M30.9393 17.3691C31.4782 17.7135 31.9262 18.1827 32.2453 18.737C33.327 20.6106 32.7215 22.9923 30.901 24.129C31.1667 25.0392 31.5405 25.9143 32.0144 26.7355C33.0149 28.4685 34.1116 29.6823 35.6963 30.6761L37.7381 27.1396C36.7527 26.494 36.1727 25.7882 35.5434 24.6981C33.3951 20.9774 34.6702 16.2196 38.3908 14.0713L36.3533 10.5423C33.6392 12.1098 31.7819 14.5889 30.9393 17.3691ZM50.9658 12.7371L50.9261 12.7148L50.8955 12.7678L50.9261 12.7148L50.9032 12.7019C50.8416 12.742 50.7791 12.7811 50.7148 12.8183C48.8003 13.9237 46.3545 13.2682 45.2494 11.3538C44.8485 10.6593 44.6767 9.95215 44.7152 9.20712C42.4136 8.72318 39.9625 8.92173 37.684 9.88355L39.7454 13.4542C43.1984 12.2599 47.1228 13.6372 49.0176 16.919C49.6762 18.0563 50.0344 19.3426 50.0585 20.6566H54.1268C54.1286 20.649 54.1313 20.6419 54.1341 20.635C54.1077 18.6768 53.5953 16.6982 52.5465 14.8814C52.1016 14.1097 51.5714 13.3904 50.9658 12.7371ZM39.005 27.9089L36.9795 31.4172C39.7207 32.8253 42.843 33.0725 45.8764 32.1037C45.9213 30.769 46.6332 29.4872 47.8754 28.77C48.9612 28.1432 50.2182 28.0826 51.3044 28.4972C52.8484 26.6852 53.7933 24.4601 54.0578 22.1382H49.9445C49.5628 24.3311 48.2488 26.3455 46.1702 27.5455C43.8472 28.8868 41.261 28.9723 39.0195 27.8839" fill="white"/>
<path d="M48.4059 29.6977C49.8591 28.8589 51.7154 29.356 52.5542 30.8091C53.3929 32.2624 52.8961 34.1189 51.4426 34.9574C49.9896 35.7962 48.1331 35.2994 47.2946 33.8459C46.4554 32.3928 46.9529 30.5364 48.4059 29.6977ZM47.4282 6.32332C48.8814 5.48464 50.7376 5.98177 51.5764 7.4345C52.415 8.88796 51.9183 10.7445 50.465 11.5828C49.0118 12.4218 47.1554 11.925 46.3166 10.4715C45.4778 9.0188 45.9749 7.16215 47.4282 6.32332ZM27.0179 18.1376C28.4712 17.2988 30.3276 17.7959 31.1664 19.2488C32.005 20.7022 31.5081 22.5587 30.0548 23.3971C28.6019 24.2361 26.7454 23.7393 25.9067 22.2858C25.0675 20.8328 25.5649 18.9761 27.0179 18.1376Z" fill="white"/>
</svg>
